<svg xmlns="http://www.w3.org/2000/svg" width="1000" height="420" viewBox="0 0 1000 420">
  <defs>
    <linearGradient id="bg" x1="0" y1="0" x2="0" y2="1">
      <stop offset="0" stop-color="#ffffff"/>
      <stop offset="1" stop-color="#efefef"/>
    </linearGradient>
    <filter id="shadow" x="-20%" y="-20%" width="140%" height="140%">
      <feDropShadow dx="0" dy="10" stdDeviation="14" flood-opacity="0.18"/>
    </filter>
  </defs>

  <rect x="20" y="20" width="960" height="380" rx="26" fill="url(#bg)" filter="url(#shadow)"/>
  <rect x="48" y="48" width="904" height="266" rx="20" fill="#f7f7f7"/>
  <rect x="48" y="48" width="904" height="266" rx="20" fill="none" stroke="#bdbdbd" stroke-width="4" stroke-dasharray="12 10"/>

  <text x="500" y="190" text-anchor="middle" font-family="system-ui,-apple-system,Segoe UI,Roboto,Helvetica,Arial,sans-serif" font-size="150" font-weight="800" fill="#d7d7d7" letter-spacing="4">KUPÓN</text>

  <!-- simple phone silhouettes -->
  <g transform="translate(360 150)">
    <g transform="translate(-90 40)">
      <rect x="0" y="0" width="78" height="132" rx="14" fill="#111"/>
      <rect x="10" y="14" width="58" height="102" rx="10" fill="#222"/>
      <circle cx="39" cy="120" r="4" fill="#444"/>
      <g transform="translate(14 22)">
        <circle cx="10" cy="10" r="8" fill="#2a2a2a"/>
        <circle cx="30" cy="10" r="8" fill="#2a2a2a"/>
        <circle cx="10" cy="30" r="8" fill="#2a2a2a"/>
        <circle cx="30" cy="30" r="8" fill="#2a2a2a"/>
      </g>
    </g>
    <g transform="translate(0 20)">
      <rect x="0" y="0" width="78" height="152" rx="14" fill="#d9dde0"/>
      <rect x="10" y="14" width="58" height="120" rx="10" fill="#f5f7f9"/>
      <circle cx="39" cy="140" r="4" fill="#b8bec4"/>
      <g transform="translate(14 22)">
        <rect x="0" y="0" width="50" height="50" rx="14" fill="#c3c8cc"/>
        <circle cx="14" cy="16" r="7" fill="#6e7377"/>
        <circle cx="36" cy="16" r="7" fill="#6e7377"/>
        <circle cx="14" cy="36" r="7" fill="#6e7377"/>
        <circle cx="36" cy="36" r="7" fill="#6e7377"/>
      </g>
    </g>
    <g transform="translate(90 40)">
      <rect x="0" y="0" width="78" height="132" rx="14" fill="#9bc6c9"/>
      <rect x="10" y="14" width="58" height="102" rx="10" fill="#cfe7e9"/>
      <circle cx="39" cy="120" r="4" fill="#7aa6aa"/>
      <g transform="translate(14 22)">
        <rect x="0" y="0" width="50" height="50" rx="14" fill="#8ab0b3"/>
        <circle cx="14" cy="16" r="7" fill="#2f3b3c"/>
        <circle cx="36" cy="16" r="7" fill="#2f3b3c"/>
        <circle cx="14" cy="36" r="7" fill="#2f3b3c"/>
        <circle cx="36" cy="36" r="7" fill="#2f3b3c"/>
      </g>
    </g>
  </g>

  <text x="80" y="280" font-family="system-ui,-apple-system,Segoe UI,Roboto,Helvetica,Arial,sans-serif" font-size="44" font-weight="700" fill="#7a7a7a">Extra sleva 7 % na novou řadu POCO M8 (M8, M8 Pro)</text>
  <text x="500" y="330" text-anchor="middle" font-family="system-ui,-apple-system,Segoe UI,Roboto,Helvetica,Arial,sans-serif" font-size="54" font-weight="800" fill="#000000">Řada POCO M8</text>

  <g transform="translate(920 50)">
    <rect x="0" y="0" width="54" height="54" rx="12" fill="#f59f57"/>
    <text x="27" y="36" text-anchor="middle" font-family="system-ui,-apple-system,Segoe UI,Roboto,Helvetica,Arial,sans-serif" font-size="28" font-weight="900" fill="#ffffff">mi</text>
  </g>

  <text x="955" y="296" text-anchor="end" font-family="system-ui,-apple-system,Segoe UI,Roboto,Helvetica,Arial,sans-serif" font-size="22" font-weight="600" fill="#5f5f5f">mi.com/cz</text>
</svg>
