<svg xmlns="http://www.w3.org/2000/svg" width="132" height="132" viewBox="0 0 132 132">
  <rect width="132" height="132" fill="#fff"/>
  <g fill="#111">
    <rect x="6" y="6" width="34" height="34"/>
    <rect x="10" y="10" width="26" height="26" fill="#fff"/>
    <rect x="14" y="14" width="18" height="18"/>
    <rect x="92" y="6" width="34" height="34"/>
    <rect x="96" y="10" width="26" height="26" fill="#fff"/>
    <rect x="100" y="14" width="18" height="18"/>
    <rect x="6" y="92" width="34" height="34"/>
    <rect x="10" y="96" width="26" height="26" fill="#fff"/>
    <rect x="14" y="100" width="18" height="18"/>

    <!-- fill -->
    <rect x="46" y="10" width="6" height="6"/>
    <rect x="58" y="10" width="6" height="6"/>
    <rect x="70" y="10" width="6" height="6"/>
    <rect x="46" y="22" width="6" height="6"/>
    <rect x="52" y="28" width="6" height="6"/>
    <rect x="64" y="22" width="6" height="6"/>
    <rect x="76" y="22" width="6" height="6"/>
    <rect x="46" y="34" width="6" height="6"/>
    <rect x="58" y="34" width="6" height="6"/>
    <rect x="70" y="34" width="6" height="6"/>
    <rect x="82" y="34" width="6" height="6"/>

    <rect x="46" y="52" width="6" height="6"/>
    <rect x="52" y="58" width="6" height="6"/>
    <rect x="58" y="64" width="6" height="6"/>
    <rect x="64" y="52" width="6" height="6"/>
    <rect x="70" y="58" width="6" height="6"/>
    <rect x="76" y="64" width="6" height="6"/>
    <rect x="82" y="52" width="6" height="6"/>

    <rect x="46" y="76" width="6" height="6"/>
    <rect x="52" y="82" width="6" height="6"/>
    <rect x="58" y="88" width="6" height="6"/>
    <rect x="64" y="76" width="6" height="6"/>
    <rect x="70" y="82" width="6" height="6"/>
    <rect x="76" y="88" width="6" height="6"/>
    <rect x="82" y="76" width="6" height="6"/>
    <rect x="88" y="82" width="6" height="6"/>

    <rect x="46" y="104" width="6" height="6"/>
    <rect x="58" y="104" width="6" height="6"/>
    <rect x="70" y="104" width="6" height="6"/>
    <rect x="82" y="104" width="6" height="6"/>
    <rect x="94" y="104" width="6" height="6"/>
    <rect x="106" y="104" width="6" height="6"/>

    <rect x="94" y="52" width="6" height="6"/>
    <rect x="100" y="58" width="6" height="6"/>
    <rect x="106" y="64" width="6" height="6"/>
    <rect x="112" y="52" width="6" height="6"/>
    <rect x="94" y="76" width="6" height="6"/>
    <rect x="106" y="76" width="6" height="6"/>
    <rect x="112" y="82" width="6" height="6"/>
    <rect x="100" y="88" width="6" height="6"/>
  </g>
</svg>