<svg xmlns="http://www.w3.org/2000/svg" width="96" height="96" viewBox="0 0 96 96">
  <rect x="0" y="0" width="96" height="96" rx="18" fill="#1e69b9"/>
  <path d="M56 20c8 4 13 12 13 22 0 13-9 24-21 27 4-5 6-11 6-18 0-15-10-27-24-30 9-5 18-6 26-1z" fill="#ffffff" opacity="0.95"/>
  <path d="M44 26c-10 4-17 14-17 25 0 9 4 17 11 22-2-4-3-8-3-13 0-14 9-26 21-30-4-2-8-3-12-4z" fill="#ffffff" opacity="0.75"/>
  <text x="48" y="84" text-anchor="middle" font-family="system-ui,-apple-system,Segoe UI,Roboto,Helvetica,Arial,sans-serif" font-size="22" font-weight="800" fill="#ffffff" letter-spacing="1">UNIQA</text>
</svg>
